<svg width="1080" height="1350" viewBox="0 0 1080 1350" fill="none" xmlns="http://www.w3.org/2000/svg">
<rect x="-2" y="1167" width="421" height="185" stroke="#8ECAE6" stroke-opacity="0.2" stroke-width="4"/>
<rect x="-2" y="1195" width="393" height="157" stroke="#FFB703" stroke-width="4"/>
<rect x="1003" y="-2" width="79" height="271" stroke="#FFB703" stroke-width="4"/>
<rect x="1032" y="-2" width="50" height="242" stroke="#989A9A" stroke-width="4"/>
<path d="M68.0575 43.8372L65.9474 36L63.8372 43.8372L56 45.9474L63.8372 48.0575L65.9474 55.8947L68.0575 48.0575L75.8947 45.9474L68.0575 43.8372Z" fill="white"/>
<path d="M94.5838 43.8372L92.4737 36L90.3635 43.8372L82.5263 45.9474L90.3635 48.0575L92.4737 55.8947L94.5838 48.0575L102.421 45.9474L94.5838 43.8372Z" fill="white"/>
<path d="M119 36L121.11 43.8372L128.947 45.9474L121.11 48.0575L119 55.8947L116.89 48.0575L109.053 45.9474L116.89 43.8372L119 36Z" fill="white"/>
<path d="M147.636 43.8372L145.526 36L143.416 43.8372L135.579 45.9474L143.416 48.0575L145.526 55.8947L147.636 48.0575L155.474 45.9474L147.636 43.8372Z" fill="white"/>
<path d="M172.053 36L174.163 43.8372L182 45.9474L174.163 48.0575L172.053 55.8947L169.942 48.0575L162.105 45.9474L169.942 43.8372L172.053 36Z" fill="white"/>
<path d="M65.9474 62.5263L68.0575 70.3635L75.8947 72.4737L68.0575 74.5838L65.9474 82.4211L63.8372 74.5838L56 72.4737L63.8372 70.3635L65.9474 62.5263Z" fill="white"/>
<path d="M94.5838 70.3635L92.4737 62.5263L90.3635 70.3635L82.5263 72.4737L90.3635 74.5838L92.4737 82.4211L94.5838 74.5838L102.421 72.4737L94.5838 70.3635Z" fill="white"/>
<path d="M119 62.5263L121.11 70.3635L128.947 72.4737L121.11 74.5838L119 82.4211L116.89 74.5838L109.053 72.4737L116.89 70.3635L119 62.5263Z" fill="white"/>
<path d="M147.636 70.3635L145.526 62.5263L143.416 70.3635L135.579 72.4737L143.416 74.5838L145.526 82.4211L147.636 74.5838L155.474 72.4737L147.636 70.3635Z" fill="white"/>
<path d="M172.053 62.5263L174.163 70.3635L182 72.4737L174.163 74.5838L172.053 82.4211L169.942 74.5838L162.105 72.4737L169.942 70.3635L172.053 62.5263Z" fill="white"/>
<path d="M65.9474 89.0526L68.0575 96.8898L75.8947 99L68.0575 101.11L65.9474 108.947L63.8372 101.11L56 99L63.8372 96.8898L65.9474 89.0526Z" fill="white"/>
<path d="M94.5838 96.8898L92.4737 89.0526L90.3635 96.8898L82.5263 99L90.3635 101.11L92.4737 108.947L94.5838 101.11L102.421 99L94.5838 96.8898Z" fill="white"/>
<path d="M119 89.0526L121.11 96.8898L128.947 99L121.11 101.11L119 108.947L116.89 101.11L109.053 99L116.89 96.8898L119 89.0526Z" fill="white"/>
<path d="M147.636 96.8898L145.526 89.0526L143.416 96.8898L135.579 99L143.416 101.11L145.526 108.947L147.636 101.11L155.474 99L147.636 96.8898Z" fill="white"/>
<path d="M172.053 89.0526L174.163 96.8898L182 99L174.163 101.11L172.053 108.947L169.942 101.11L162.105 99L169.942 96.8898L172.053 89.0526Z" fill="white"/>
<path d="M65.9474 115.579L68.0575 123.416L75.8947 125.526L68.0575 127.636L65.9474 135.474L63.8372 127.636L56 125.526L63.8372 123.416L65.9474 115.579Z" fill="white"/>
<path d="M94.5838 123.416L92.4737 115.579L90.3635 123.416L82.5263 125.526L90.3635 127.636L92.4737 135.474L94.5838 127.636L102.421 125.526L94.5838 123.416Z" fill="white"/>
<path d="M119 115.579L121.11 123.416L128.947 125.526L121.11 127.636L119 135.474L116.89 127.636L109.053 125.526L116.89 123.416L119 115.579Z" fill="white"/>
<path d="M147.636 123.416L145.526 115.579L143.416 123.416L135.579 125.526L143.416 127.636L145.526 135.474L147.636 127.636L155.474 125.526L147.636 123.416Z" fill="white"/>
<path d="M172.053 115.579L174.163 123.416L182 125.526L174.163 127.636L172.053 135.474L169.942 127.636L162.105 125.526L169.942 123.416L172.053 115.579Z" fill="white"/>
<path d="M65.9474 142.105L68.0575 149.942L75.8947 152.053L68.0575 154.163L65.9474 162L63.8372 154.163L56 152.053L63.8372 149.942L65.9474 142.105Z" fill="white"/>
<path d="M94.5838 149.942L92.4737 142.105L90.3635 149.942L82.5263 152.053L90.3635 154.163L92.4737 162L94.5838 154.163L102.421 152.053L94.5838 149.942Z" fill="white"/>
<path d="M119 142.105L121.11 149.942L128.947 152.053L121.11 154.163L119 162L116.89 154.163L109.053 152.053L116.89 149.942L119 142.105Z" fill="white"/>
<path d="M147.636 149.942L145.526 142.105L143.416 149.942L135.579 152.053L143.416 154.163L145.526 162L147.636 154.163L155.474 152.053L147.636 149.942Z" fill="white"/>
<path d="M172.053 142.105L174.163 149.942L182 152.053L174.163 154.163L172.053 162L169.942 154.163L162.105 152.053L169.942 149.942L172.053 142.105Z" fill="white"/>
</svg>
